<?xml version="1.0" encoding="UTF-8"?>
<svg version="1.1" xmlns="http://www.w3.org/2000/svg" width="1536" height="1024">
<path d="M0 0 C506.88 0 1013.76 0 1536 0 C1536 337.92 1536 675.84 1536 1024 C1029.12 1024 522.24 1024 0 1024 C0 686.08 0 348.16 0 0 Z " fill="#FDFDFD" transform="translate(0,0)"/>
<path d="M0 0 C4.08245415 1.82656649 7.33648627 4.30842093 9.76171875 8.09375 C11.9872069 14.04899143 11.38847081 20.81832053 9.54296875 26.7890625 C6.31880379 31.05328067 2.73001499 34.64338042 -2.39453125 36.3515625 C-4.5170377 36.47196854 -6.64364712 36.52690069 -8.76953125 36.5390625 C-9.89101563 36.55324219 -11.0125 36.56742187 -12.16796875 36.58203125 C-15.34337967 36.35521618 -17.53687843 35.70546918 -20.39453125 34.3515625 C-21.07257813 34.980625 -21.750625 35.6096875 -22.44921875 36.2578125 C-28.57271147 41.88939029 -34.81893881 47.24513713 -41.39453125 52.3515625 C-38.17896274 55.67681827 -34.92601609 58.60391425 -31.20703125 61.3515625 C-30.16160156 62.125 -29.11617188 62.8984375 -28.0390625 63.6953125 C-23.05321331 67.33962138 -18.04042078 70.94686056 -13.02832031 74.55493164 C-7.86024653 78.27904865 -2.74269664 82.06204438 2.33984375 85.90234375 C7.41276015 89.72335318 12.54531148 93.46500078 17.66967773 97.21655273 C23.05464735 101.17051182 28.35221739 105.22428693 33.60546875 109.3515625 C30.87026658 115.24135431 25.64888573 118.45693144 20.60546875 122.3515625 C19.92887207 122.87508301 19.25227539 123.39860352 18.55517578 123.93798828 C16.39086069 125.60528718 14.21887366 127.26192303 12.04296875 128.9140625 C10.98891846 129.7194043 10.98891846 129.7194043 9.91357422 130.54101562 C9.25373535 131.03666016 8.59389648 131.53230469 7.9140625 132.04296875 C7.32423584 132.48842041 6.73440918 132.93387207 6.12670898 133.39282227 C4.60546875 134.3515625 4.60546875 134.3515625 2.60546875 134.3515625 C6.90438608 138.91970496 11.69679479 142.6649279 16.66796875 146.4765625 C17.47041016 147.09660156 18.27285156 147.71664062 19.09960938 148.35546875 C21.2642756 150.02612401 23.43145027 151.69309772 25.60546875 153.3515625 C26.30357666 153.91085449 27.00168457 154.47014648 27.72094727 155.04638672 C29.53944183 156.55998506 29.53944183 156.55998506 31.91015625 156.4140625 C35.88589274 154.84681565 38.60192059 152.21183515 41.73046875 149.3515625 C43.0666061 148.16022098 44.4038533 146.97012308 45.7421875 145.78125 C46.39751465 145.19569336 47.0528418 144.61013672 47.72802734 144.00683594 C51.04790653 141.07981631 54.49497247 138.31836764 57.9453125 135.546875 C60.52898921 133.50866559 60.52898921 133.50866559 62.29541016 131.5534668 C66.1011517 127.69853407 68.69419877 125.90042462 74.19921875 125.66796875 C76.16914081 125.7139336 78.13851391 125.7966131 80.10546875 125.9140625 C81.11867188 125.94564453 82.131875 125.97722656 83.17578125 126.00976562 C85.65543209 126.09164089 88.12886641 126.20619949 90.60546875 126.3515625 C87.37072338 130.27805308 84.25422725 133.90276377 80.16796875 136.9765625 C75.74943385 140.40656632 71.50493965 143.98676629 67.29296875 147.6640625 C62.04839274 152.23644267 56.77510923 156.76924519 51.4543457 161.25268555 C47.44183105 164.63626786 43.4584451 168.05248159 39.48046875 171.4765625 C34.41369267 175.83486941 29.28107661 180.09946411 24.0859375 184.3046875 C21.02960498 186.82676347 18.08451848 189.45912813 15.1640625 192.13671875 C13.60546875 193.3515625 13.60546875 193.3515625 11.60546875 193.3515625 C11.68796875 194.5065625 11.77046875 195.6615625 11.85546875 196.8515625 C11.83582052 202.40218815 9.92717094 206.77551653 6.21484375 210.89453125 C1.33827428 215.27061069 -3.79667187 216.8633995 -10.3125 216.6640625 C-15.64468879 215.86373398 -19.86099635 213.29605169 -23.33203125 209.2265625 C-27.6630492 203.18938597 -27.19911269 196.51760097 -26.39453125 189.3515625 C-24.88891346 186.28637971 -23.06969109 184.43077089 -20.39453125 182.3515625 C-19.73453125 181.7328125 -19.07453125 181.1140625 -18.39453125 180.4765625 C-13.566275 177.76066836 -7.77748464 178.09109701 -2.39453125 178.3515625 C-1.04655695 178.98810592 0.29143599 179.64761638 1.60546875 180.3515625 C6.1214296 179.66811249 8.90680521 176.83339643 12.23046875 173.9140625 C12.81570313 173.41068359 13.4009375 172.90730469 14.00390625 172.38867188 C16.26838827 170.43321893 18.4893168 168.46771445 20.60546875 166.3515625 C17.25266149 163.78728 13.89797874 161.22546215 10.54296875 158.6640625 C9.60001953 157.94283203 8.65707031 157.22160156 7.68554688 156.47851562 C5.83880861 155.06933207 3.98781948 153.66569935 2.13232422 152.26806641 C0.5838149 151.09359316 -0.95192197 149.90173149 -2.46435547 148.68115234 C-5.74084029 146.01048766 -5.74084029 146.01048766 -9.78125 145.51342773 C-12.84863494 146.49720319 -14.79756036 147.86372199 -17.3359375 149.84375 C-18.24923828 150.54886719 -19.16253906 151.25398437 -20.10351562 151.98046875 C-21.04517578 152.72167969 -21.98683594 153.46289062 -22.95703125 154.2265625 C-23.90255859 154.96003906 -24.84808594 155.69351563 -25.82226562 156.44921875 C-27.58204105 157.81475474 -29.33895767 159.18398871 -31.09204102 160.55810547 C-31.85186279 161.14994629 -32.61168457 161.74178711 -33.39453125 162.3515625 C-34.10472412 162.92277832 -34.81491699 163.49399414 -35.54663086 164.08251953 C-37.39453125 165.3515625 -37.39453125 165.3515625 -39.76953125 165.4140625 C-43.59787484 163.86449486 -45.61496232 161.38969598 -48.39453125 158.3515625 C-47.05764426 154.34090152 -44.43461979 153.00760979 -41.08203125 150.7265625 C-39.79603324 149.83063413 -38.51089091 148.93347639 -37.2265625 148.03515625 C-36.58025879 147.5851123 -35.93395508 147.13506836 -35.26806641 146.67138672 C-30.55607606 143.35199399 -25.99085214 139.82818745 -21.39453125 136.3515625 C-17.40199214 133.34154013 -13.40223655 130.34135468 -9.39453125 127.3515625 C-8.63027832 126.78115234 -7.86602539 126.21074219 -7.07861328 125.62304688 C-4.51999425 123.71633368 -1.95768302 121.81467698 0.60546875 119.9140625 C1.43119385 119.29829346 2.25691895 118.68252441 3.10766602 118.0480957 C3.89069092 117.46890381 4.67371582 116.88971191 5.48046875 116.29296875 C6.52847656 115.51481812 6.52847656 115.51481812 7.59765625 114.72094727 C9.5386207 113.39715475 11.48044418 112.34707219 13.60546875 111.3515625 C13.60546875 110.6915625 13.60546875 110.0315625 13.60546875 109.3515625 C13.02079834 109.07248047 12.43612793 108.79339844 11.83374023 108.50585938 C9.73863896 107.42054779 7.8800445 106.24004959 5.953125 104.8828125 C5.26581299 104.39925293 4.57850098 103.91569336 3.87036133 103.41748047 C3.14357178 102.90072754 2.41678223 102.38397461 1.66796875 101.8515625 C0.91088623 101.31547363 0.15380371 100.77938477 -0.6262207 100.22705078 C-5.18282304 96.98173894 -9.66842778 93.66342442 -14.08203125 90.2265625 C-19.49838784 86.01160347 -25.01034882 81.97674142 -30.62109375 78.02734375 C-33.41395713 76.06035927 -36.17007942 74.04883998 -38.91796875 72.01953125 C-40.45179105 70.90099796 -41.98564475 69.78250774 -43.51953125 68.6640625 C-44.24237305 68.12217285 -44.96521484 67.5802832 -45.70996094 67.02197266 C-46.73331543 66.28213135 -46.73331543 66.28213135 -47.77734375 65.52734375 C-48.68057373 64.86085815 -48.68057373 64.86085815 -49.60205078 64.1809082 C-51.3756242 63.17546326 -51.3756242 63.17546326 -53.42407227 63.55810547 C-55.54674106 64.41285378 -56.84588721 65.33990911 -58.5390625 66.87109375 C-59.41800171 67.65480347 -59.41800171 67.65480347 -60.31469727 68.4543457 C-60.93916748 69.01855225 -61.5636377 69.58275879 -62.20703125 70.1640625 C-63.56601056 71.34160265 -64.92539605 72.51867417 -66.28515625 73.6953125 C-68.93033511 76.01139053 -71.45996991 78.39300236 -73.94140625 80.8828125 C-81.4008405 88.02285396 -86.86043314 90.32557634 -97.33203125 90.1015625 C-100.69950626 89.94738763 -104.04273115 89.70984728 -107.39453125 89.3515625 C-107.39453125 88.6915625 -107.39453125 88.0315625 -107.39453125 87.3515625 C-105.69921875 85.828125 -105.69921875 85.828125 -103.26953125 83.9765625 C-98.89308616 80.5657828 -94.65230009 77.04223248 -90.45703125 73.4140625 C-82.31108836 66.39139415 -74.0594979 59.52518758 -65.46484375 53.0546875 C-63.26393959 51.30016674 -63.26393959 51.30016674 -60.94140625 48.8984375 C-58.56824614 46.52527739 -56.14115348 44.44232665 -53.51953125 42.3515625 C-48.07580141 37.95214002 -42.78630312 33.39335077 -37.52197266 28.78125 C-36.91401855 28.25015625 -36.30606445 27.7190625 -35.6796875 27.171875 C-35.10943848 26.67163818 -34.53918945 26.17140137 -33.95166016 25.65600586 C-32.39453125 24.3515625 -32.39453125 24.3515625 -29.984375 22.73828125 C-28.20865416 21.46386414 -28.20865416 21.46386414 -27.92578125 19.30078125 C-27.91546875 18.55441406 -27.90515625 17.80804688 -27.89453125 17.0390625 C-27.4197765 10.6608357 -24.46362046 7.16594926 -19.76953125 3.0390625 C-14.02320178 -1.74118101 -7.19390898 -1.94810586 0 0 Z " fill="#0A3F48" transform="translate(478.39453125,382.6484375)"/>
<path d="M0 0 C0.33 0 0.66 0 1 0 C0.95875 1.134375 0.9175 2.26875 0.875 3.4375 C1.54418942 8.98783574 5.24005523 11.53337936 9.34375 14.953125 C11.5723036 16.67042219 13.81710861 18.32954288 16.125 19.9375 C17.07375 20.618125 18.0225 21.29875 19 22 C19 22.66 19 23.32 19 24 C19.56074219 24.25136719 20.12148438 24.50273437 20.69921875 24.76171875 C29.0645111 29.26392193 36.29746977 36.96506262 43.44824219 43.19824219 C47.95273399 47.11708143 52.53644277 50.92106051 57.17578125 54.6796875 C62.28501868 58.87731825 67.28491206 63.20454846 72.28710938 67.52880859 C73.51154565 68.58046951 74.74280959 69.62420203 75.97851562 70.66259766 C76.61982422 71.20319824 77.26113281 71.74379883 77.921875 72.30078125 C78.5106543 72.79360596 79.09943359 73.28643066 79.70605469 73.79418945 C80.13305664 74.19210693 80.56005859 74.59002441 81 75 C81 75.33 81 75.66 81 76 C59.45178744 77.66808315 59.45178744 77.66808315 52.9375 72.1875 C51.26703259 70.48211929 49.62234498 68.75122285 48 67 C45.81893302 65.06631942 43.56453851 63.22511753 41.3125 61.375 C36.97152144 57.73403596 32.74913433 53.99470505 28.68359375 50.046875 C27.06080852 48.78696088 27.06080852 48.78696088 25.13891602 49.27050781 C22.75698539 50.08288182 21.12088469 51.13697571 19.09375 52.625 C18.35519775 53.16294189 17.61664551 53.70088379 16.85571289 54.25512695 C16.07832764 54.83093506 15.30094238 55.40674316 14.5 56 C13.70134521 56.58289795 12.90269043 57.1657959 12.07983398 57.76635742 C8.44247703 60.42843593 4.82848358 63.11744945 1.25390625 65.86328125 C0.4340625 66.49073242 0.4340625 66.49073242 -0.40234375 67.13085938 C-1.84598874 68.24206194 -3.28073647 69.36479636 -4.71484375 70.48828125 C-7 72 -7 72 -10 72 C-11.73901367 70.99707031 -11.73901367 70.99707031 -13.66796875 69.578125 C-14.38863525 69.05299316 -15.10930176 68.52786133 -15.85180664 67.98681641 C-16.62258545 67.41366699 -17.39336426 66.84051758 -18.1875 66.25 C-19.38330688 65.37287354 -19.38330688 65.37287354 -20.60327148 64.47802734 C-23.075217 62.66045632 -25.53868229 60.83193066 -28 59 C-28.74733398 58.44538086 -29.49466797 57.89076172 -30.26464844 57.31933594 C-37.91326815 51.63720844 -45.51888699 45.90176693 -53 40 C-46.10489643 32.87505965 -38.55746962 26.40741989 -31 20 C-30.30777344 20.32355469 -29.61554688 20.64710938 -28.90234375 20.98046875 C-22.7735003 23.1334003 -15.6381799 22.8479864 -9.5 20.875 C-3.50302399 16.37726799 -1.83916377 13.53430536 -0.6875 6.125 C-0.43885009 4.08561447 -0.20322785 2.04441155 0 0 Z " fill="#08A69F" transform="translate(489,396)"/>
<path d="M0 0 C0.83724609 0.02191406 1.67449219 0.04382813 2.53710938 0.06640625 C3.37048828 0.01871094 4.20386719 -0.02898437 5.0625 -0.078125 C7.74140498 -0.06541873 9.62106568 0.16333583 12.09960938 1.19140625 C14.82960918 4.14863934 16.36936547 7.58412725 18.09960938 11.19140625 C19.31494006 13.44986634 20.5366773 15.70488673 21.76367188 17.95703125 C23.09037616 20.44844812 24.40664208 22.94535902 25.72460938 25.44140625 C27.13437798 28.10246069 28.54630207 30.76236638 29.95898438 33.421875 C30.30867279 34.08054062 30.65836121 34.73920624 31.01864624 35.41783142 C34.76696603 42.466688 38.60082213 49.4685262 42.46923828 56.45214844 C44.58589586 60.29692026 46.62352389 64.04309705 48.09960938 68.19140625 C35.38957803 69.39046581 35.38957803 69.39046581 30.09960938 68.19140625 C26.75764409 65.34454693 25.29499071 62.38211094 24.09960938 58.19140625 C24.09960938 57.53140625 24.09960938 56.87140625 24.09960938 56.19140625 C9.90960937 56.19140625 -4.28039062 56.19140625 -18.90039062 56.19140625 C-19.89039063 58.66640625 -19.89039063 58.66640625 -20.90039062 61.19140625 C-22.22039063 63.50140625 -23.54039062 65.81140625 -24.90039062 68.19140625 C-30.51039063 68.19140625 -36.12039063 68.19140625 -41.90039062 68.19140625 C-40.60131249 64.29417186 -39.54215129 61.23456616 -37.68554688 57.71484375 C-37.25201904 56.88911865 -36.81849121 56.06339355 -36.37182617 55.21264648 C-35.67440308 53.90275757 -35.67440308 53.90275757 -34.96289062 52.56640625 C-34.47925049 51.64996338 -33.99561035 50.73352051 -33.49731445 49.78930664 C-29.64386376 42.51637764 -25.6822117 35.30493337 -21.68920898 28.10791016 C-18.73776644 22.77189027 -15.93341963 17.4028092 -13.31445312 11.89453125 C-12.8478125 11.0025 -12.38117187 10.11046875 -11.90039062 9.19140625 C-11.58932373 8.51029785 -11.27825684 7.82918945 -10.95776367 7.12744141 C-8.21366888 1.80739053 -6.03803724 0.14342131 0 0 Z " fill="#0C4149" transform="translate(771.900390625,460.80859375)"/>
<path d="M0 0 C21.12 0 42.24 0 64 0 C64 3.96 64 7.92 64 12 C48.49 12 32.98 12 17 12 C17 16.95 17 21.9 17 27 C31.19 27 45.38 27 60 27 C60 30.96 60 34.92 60 39 C45.81 39 31.62 39 17 39 C17 44.28 17 49.56 17 55 C32.51 55 48.02 55 64 55 C64 58.96 64 62.92 64 67 C42.88 67 21.76 67 0 67 C0 44.89 0 22.78 0 0 Z " fill="#0DA7A0" transform="translate(958,462)"/>
<path d="M0 0 C5.61 0 11.22 0 17 0 C17 8.91 17 17.82 17 27 C31.19 27 45.38 27 60 27 C60 18.09 60 9.18 60 0 C65.28 0 70.56 0 76 0 C76 22.11 76 44.22 76 67 C70.72 67 65.44 67 60 67 C60 57.43 60 47.86 60 38 C45.81 38 31.62 38 17 38 C17 47.57 17 57.14 17 67 C11.39 67 5.78 67 0 67 C0 44.89 0 22.78 0 0 Z " fill="#06A099" transform="translate(1111,462)"/>
<path d="M0 0 C20.00002434 -1.90870494 20.00002434 -1.90870494 25.74609375 2.1328125 C28.79975149 4.80943947 31.35915773 7.92433627 34 11 C35.81758694 12.58462862 37.67155896 14.12866711 39.5625 15.625 C40.45324219 16.34429688 41.34398437 17.06359375 42.26171875 17.8046875 C43.61716797 18.89136719 43.61716797 18.89136719 45 20 C46.96091755 21.58013171 48.91928385 23.16343509 50.875 24.75 C51.73867188 25.44609375 52.60234375 26.1421875 53.4921875 26.859375 C56.9362382 29.7991566 60.08344613 32.91159228 63 36.375 C64.8725905 38.27766976 64.8725905 38.27766976 67.31835938 37.81982422 C70.44236237 36.86476212 72.34093408 35.52435201 74.90625 33.5078125 C75.81503906 32.80269531 76.72382813 32.09757813 77.66015625 31.37109375 C78.59730469 30.62988281 79.53445313 29.88867188 80.5 29.125 C82.36282699 27.667024 84.22735489 26.21121805 86.09375 24.7578125 C86.91552734 24.1095752 87.73730469 23.46133789 88.58398438 22.79345703 C95.11709331 17.94379876 95.11709331 17.94379876 98.0480957 18.13037109 C100.355029 19.15817552 102.20635064 20.4004611 104.23046875 21.9140625 C105.03419922 22.51089844 105.83792969 23.10773437 106.66601562 23.72265625 C107.91415039 24.66431641 107.91415039 24.66431641 109.1875 25.625 C110.00025391 26.22957031 110.81300781 26.83414063 111.65039062 27.45703125 C117.15662858 31.56590253 122.59162428 35.76339836 128 40 C124.45826718 43.6068382 120.82361106 47.06573256 117 50.375 C116.49210937 50.83777344 115.98421875 51.30054688 115.4609375 51.77734375 C112.94373154 53.93955913 111.63525463 55.03428931 108.25 54.8515625 C106 54 106 54 104 53 C97.19974764 52.65422446 91.19930942 53.00669921 85.6875 57.4375 C81.59348395 61.3410967 80.73139247 63.6634167 80.375 69.1875 C80.26285156 70.81751953 80.26285156 70.81751953 80.1484375 72.48046875 C80.09945312 73.31191406 80.05046875 74.14335938 80 75 C79.67 75 79.34 75 79 75 C79 72.36 79 69.72 79 67 C78.46503906 66.77441406 77.93007813 66.54882812 77.37890625 66.31640625 C74.22930285 64.57352227 71.64006056 62.28788327 68.9375 59.9375 C67.76889043 58.93412516 66.59960978 57.93153143 65.4296875 56.9296875 C64.84928711 56.43178711 64.26888672 55.93388672 63.67089844 55.42089844 C61.33109877 53.43117984 58.94902047 51.49579403 56.5625 49.5625 C49.93561104 44.16494697 43.47425662 38.57860156 37 33 C22.55884191 20.53951848 22.55884191 20.53951848 7.80859375 8.44921875 C6.29458984 7.23685547 6.29458984 7.23685547 4.75 6 C3.83734375 5.278125 2.9246875 4.55625 1.984375 3.8125 C1.32953125 3.214375 0.6746875 2.61625 0 2 C0 1.34 0 0.68 0 0 Z " fill="#0AA7A0" transform="translate(372,509)"/>
<path d="M0 0 C21.45 0 42.9 0 65 0 C65 3.96 65 7.92 65 12 C49.16 12 33.32 12 17 12 C17 17.61 17 23.22 17 29 C31.52 29 46.04 29 61 29 C61 32.96 61 36.92 61 41 C46.48 41 31.96 41 17 41 C17 49.58 17 58.16 17 67 C11.39 67 5.78 67 0 67 C0 44.89 0 22.78 0 0 Z " fill="#0B4047" transform="translate(663,462)"/>
<path d="M0 0 C1.87238503 0.01507896 3.74478185 0.02876166 5.6171875 0.04101562 C10.16175434 0.07375561 14.70574399 0.12535905 19.25 0.1875 C19.25 4.1475 19.25 8.1075 19.25 12.1875 C18.23164062 12.20731934 17.21328125 12.22713867 16.1640625 12.24755859 C12.35442051 12.32413117 8.54513501 12.41276507 4.73583984 12.50488281 C3.09300825 12.54296062 1.45009929 12.57784888 -0.19287109 12.609375 C-2.5663604 12.65549015 -4.9393267 12.71340261 -7.3125 12.7734375 C-8.39893799 12.79076431 -8.39893799 12.79076431 -9.50732422 12.80844116 C-16.7236249 13.0132421 -23.42767746 13.86517746 -28.75 19.1875 C-32.71762153 25.45291673 -32.40595896 35.09388765 -31.125 42.1875 C-29.92149806 46.5249533 -28.00226996 49.08649841 -24.75 52.1875 C-20.21407378 54.63255316 -15.75755314 54.53136917 -10.73046875 54.6015625 C-9.87189774 54.62092865 -9.01332672 54.6402948 -8.1287384 54.6602478 C-5.39842526 54.71981556 -2.66806943 54.76633734 0.0625 54.8125 C1.91863773 54.85070079 3.77475812 54.88975375 5.63085938 54.9296875 C10.17043144 55.02549827 14.71008646 55.10961321 19.25 55.1875 C19.25 59.1475 19.25 63.1075 19.25 67.1875 C13.5941042 67.26219184 7.93850162 67.3163562 2.28222656 67.35229492 C0.36192822 67.36729221 -1.55833639 67.38769682 -3.47851562 67.41381836 C-6.25399142 67.45060351 -9.02901064 67.46731721 -11.8046875 67.48046875 C-13.07250565 67.50369453 -13.07250565 67.50369453 -14.36593628 67.52738953 C-24.57048261 67.53020905 -33.8516942 64.53743723 -41.47265625 57.625 C-48.42981102 50.24050157 -49.16647206 42.24004944 -49.03125 32.4987793 C-48.74131498 22.85097836 -47.84938112 15.28688112 -40.75 8.1875 C-29.44459466 -1.50284743 -13.92389114 -0.19619804 0 0 Z " fill="#08A39D" transform="translate(1078.75,461.8125)"/>
<path d="M0 0 C3.97476071 2.3878506 7.02847032 5.13389826 9.57421875 9.05859375 C9.57421875 9.71859375 9.57421875 10.37859375 9.57421875 11.05859375 C25.08421875 11.05859375 40.59421875 11.05859375 56.57421875 11.05859375 C56.57421875 15.67859375 56.57421875 20.29859375 56.57421875 25.05859375 C54.46998535 25.05690186 54.46998535 25.05690186 52.32324219 25.05517578 C47.11954268 25.05884616 41.91677263 25.10162916 36.71337891 25.15625 C34.46116112 25.1744209 32.20883169 25.18197654 29.95654297 25.17871094 C26.7188461 25.17585708 23.4834696 25.21113968 20.24609375 25.25390625 C18.73496002 25.24026535 18.73496002 25.24026535 17.19329834 25.22634888 C14.52020609 25.28195364 12.16172645 25.38351263 9.57421875 26.05859375 C7.01143069 28.83242284 7.01143069 28.83242284 5.57421875 32.05859375 C0.23965302 36.00617239 -4.78023862 37.31899903 -11.42578125 37.05859375 C-18.10489644 35.74371567 -22.10815336 32.31564847 -26.03515625 26.796875 C-28.56285638 21.81957783 -28.03639835 16.49926069 -27.42578125 11.05859375 C-25.14026195 6.1359368 -21.70883419 3.24810126 -17.42578125 0.05859375 C-11.92870855 -1.77376382 -5.4593088 -2.11866895 0 0 Z " fill="#10454C" transform="translate(361.42578125,471.94140625)"/>
<path d="M0 0 C5.13983578 2.98752955 7.73166612 8.00749836 9.5625 13.5 C9.96459863 18.72728215 9.50059559 23.09285662 6.5625 27.5 C1.54606835 32.85303204 -2.8595096 36.14806652 -10.25 36.875 C-15.84044202 36.69602163 -20.24637422 34.59322442 -24.2734375 30.74609375 C-28.4375 26.06396714 -28.4375 26.06396714 -28.4375 23.5 C-43.6175 23.5 -58.7975 23.5 -74.4375 23.5 C-74.4375 19.21 -74.4375 14.92 -74.4375 10.5 C-59.2575 10.5 -44.0775 10.5 -28.4375 10.5 C-27.7775 8.85 -27.1175 7.2 -26.4375 5.5 C-24.81640625 3.734375 -24.81640625 3.734375 -23 2.25 C-22.40316406 1.74984375 -21.80632813 1.2496875 -21.19140625 0.734375 C-15.54309717 -3.24082693 -6.1309597 -2.65596918 0 0 Z " fill="#0BA79F" transform="translate(600.4375,473.5)"/>
<path d="M0 0 C22.44 0 44.88 0 68 0 C68 3.96 68 7.92 68 12 C59.42 12 50.84 12 42 12 C42 30.15 42 48.3 42 67 C36.39 67 30.78 67 25 67 C25 48.85 25 30.7 25 12 C16.75 12 8.5 12 0 12 C0 8.04 0 4.08 0 0 Z " fill="#0BA39C" transform="translate(880,462)"/>
<path d="M0 0 C0.69222656 0.32484375 1.38445312 0.6496875 2.09765625 0.984375 C5.38104595 2.13334044 7.9658576 2.26635638 11.4375 2.25 C12.52933594 2.25515625 13.62117188 2.2603125 14.74609375 2.265625 C18.04890268 2.1741093 18.04890268 2.1741093 21.015625 0.67578125 C22.00046875 0.45277344 22.9853125 0.22976563 24 0 C26.48409111 1.56775136 28.23320366 2.93789904 30.3125 4.9375 C31.44661976 5.964975 32.58204307 6.99101294 33.71875 8.015625 C34.54826172 8.77842773 34.54826172 8.77842773 35.39453125 9.55664062 C37.61272911 11.55085987 39.94511701 13.37450416 42.3125 15.1875 C43.03050781 15.73792969 43.74851562 16.28835938 44.48828125 16.85546875 C45.23658203 17.42201172 45.23658203 17.42201172 46 18 C44.90142038 21.29573885 44.44613287 21.6659837 41.7109375 23.53125 C41.02346436 24.00731689 40.33599121 24.48338379 39.62768555 24.97387695 C38.5126062 25.72930786 38.5126062 25.72930786 37.375 26.5 C35.82563717 27.56468276 34.2774849 28.63112906 32.73046875 29.69921875 C31.54976807 30.51398682 31.54976807 30.51398682 30.34521484 31.34521484 C28.08338704 32.94116205 25.87420393 34.58760852 23.67578125 36.26953125 C23.00305176 36.78128906 22.33032227 37.29304688 21.63720703 37.8203125 C20.35857217 38.79890207 19.08708486 39.78691762 17.82373047 40.78515625 C13.60406862 43.98847197 13.60406862 43.98847197 10.953125 44.0390625 C-0.7452543 37.81552471 -12.83480074 28.50215512 -22 19 C-21.0821875 18.21496094 -20.164375 17.42992187 -19.21875 16.62109375 C-12.78368728 11.11333917 -6.35264164 5.60295101 0 0 Z " fill="#FAFBFB" transform="translate(458,416)"/>
<path d="M0 0 C5.21648458 2.72164413 9.55439546 5.98144367 14.1015625 9.703125 C17.47149241 12.3736355 20.93328433 14.88486458 24.4375 17.375 C25.04086182 17.80377441 25.64422363 18.23254883 26.26586914 18.67431641 C28.82307988 20.48352406 31.39345037 22.26230025 34 24 C34 24.66 34 25.32 34 26 C32.4621582 27.35351562 32.4621582 27.35351562 30.30078125 28.90625 C29.50929688 29.48101074 28.7178125 30.05577148 27.90234375 30.64794922 C27.04769531 31.25912598 26.19304687 31.87030273 25.3125 32.5 C23.56803281 33.76167023 21.82454765 35.02469936 20.08203125 36.2890625 C19.21916504 36.91458008 18.35629883 37.54009766 17.46728516 38.18457031 C13.04221655 41.44053807 8.75497192 44.86908178 4.46875 48.3046875 C2 50 2 50 -1 50 C-3.14656911 48.47488517 -5.15918971 46.92052244 -7.1875 45.25 C-8.43222644 44.24699871 -9.67838032 43.24576691 -10.92578125 42.24609375 C-11.58271973 41.71870605 -12.2396582 41.19131836 -12.91650391 40.64794922 C-16.51704839 37.80008476 -20.19551724 35.05713719 -23.875 32.3125 C-24.58293701 31.78366211 -25.29087402 31.25482422 -26.02026367 30.70996094 C-27.6791379 29.4719154 -29.33940738 28.2357397 -31 27 C-30.44198406 23.61078739 -29.59565204 22.29923232 -26.82421875 20.30078125 C-26.16631348 19.81770508 -25.5084082 19.33462891 -24.83056641 18.83691406 C-24.12335449 18.33385742 -23.41614258 17.83080078 -22.6875 17.3125 C-21.23027435 16.25156904 -19.77324509 15.19036829 -18.31640625 14.12890625 C-17.58953613 13.60441895 -16.86266602 13.07993164 -16.11376953 12.53955078 C-14.1685641 11.12277261 -12.24913856 9.67950101 -10.33984375 8.21484375 C-9.79303955 7.79614014 -9.24623535 7.37743652 -8.68286133 6.94604492 C-7.20754753 5.8133757 -5.73266713 4.68014204 -4.2578125 3.546875 C-2 2 -2 2 0 2 C0 1.34 0 0.68 0 0 Z " fill="#09AAA2" transform="translate(458,468)"/>
<path d="M0 0 C5.28 0 10.56 0 16 0 C16.09916768 7.25907443 16.17161155 14.51775106 16.21972656 21.77734375 C16.23979295 24.24486158 16.26705244 26.71233215 16.30175781 29.1796875 C16.35049306 32.73449393 16.37301939 36.28866944 16.390625 39.84375 C16.41127014 40.93989624 16.43191528 42.03604248 16.45318604 43.16540527 C16.45514883 49.92501471 15.60628132 54.23975776 12 60 C10 61.83984375 10 61.83984375 8 62.9375 C7.34 63.31777344 6.68 63.69804688 6 64.08984375 C1.88056897 65.9645067 -1.78881444 66.11892069 -6.296875 66.09765625 C-8.10478516 66.09282227 -8.10478516 66.09282227 -9.94921875 66.08789062 C-11.20347656 66.07951172 -12.45773437 66.07113281 -13.75 66.0625 C-15.01972656 66.05798828 -16.28945313 66.05347656 -17.59765625 66.04882812 C-20.73179095 66.03704566 -23.86590142 66.01911036 -27 66 C-27 62.04 -27 58.08 -27 54 C-25.53046875 53.96261719 -24.0609375 53.92523437 -22.546875 53.88671875 C-20.61455787 53.82105749 -18.68226735 53.7546102 -16.75 53.6875 C-15.78191406 53.66494141 -14.81382812 53.64238281 -13.81640625 53.61914062 C-12.88183594 53.58369141 -11.94726562 53.54824219 -10.984375 53.51171875 C-10.12553711 53.48553467 -9.26669922 53.45935059 -8.38183594 53.43237305 C-5.47985712 52.90557882 -4.09915122 52.05963847 -2 50 C-1.04433479 47.0925281 -0.85327471 44.37028514 -0.79467773 41.32324219 C-0.77473251 40.40258972 -0.75478729 39.48193726 -0.73423767 38.53338623 C-0.71752518 37.54783752 -0.70081268 36.56228882 -0.68359375 35.546875 C-0.66281265 34.53151672 -0.64203156 33.51615845 -0.62062073 32.47003174 C-0.55529403 29.23008927 -0.49631863 25.99006652 -0.4375 22.75 C-0.39429874 20.55207507 -0.35068393 18.35415822 -0.30664062 16.15625 C-0.19962988 10.77091539 -0.09831478 5.3855001 0 0 Z " fill="#094149" transform="translate(852,463)"/>
<path d="M0 0 C2.05541992 1.28759766 2.05541992 1.28759766 4.23046875 2.9140625 C5.03419922 3.51089844 5.83792969 4.10773437 6.66601562 4.72265625 C7.49810547 5.35042969 8.33019531 5.97820313 9.1875 6.625 C10.00025391 7.22957031 10.81300781 7.83414063 11.65039062 8.45703125 C17.15662858 12.56590253 22.59162428 16.76339836 28 21 C24.45826718 24.6068382 20.82361106 28.06573256 17 31.375 C16.49210937 31.83777344 15.98421875 32.30054688 15.4609375 32.77734375 C12.94373154 34.93955913 11.63525463 36.03428931 8.25 35.8515625 C6 35 6 35 4 34 C-0.77490265 33.74420164 -4.35985329 34.08063124 -8.9375 35.4375 C-12.04611287 36.10770553 -13.44229628 36.27509628 -16.3203125 34.85546875 C-18.69298411 33.02429536 -20.83813467 31.07554085 -23 29 C-24.68496684 27.51794837 -26.37240075 26.03869606 -28.0625 24.5625 C-29.37755324 23.37782811 -30.6910247 22.19138414 -32 21 C-27.7100841 16.45061338 -22.94563149 12.68859571 -18 8.875 C-16.80890625 7.94494141 -16.80890625 7.94494141 -15.59375 6.99609375 C-4.52280383 -1.58388953 -4.52280383 -1.58388953 0 0 Z " fill="#F9FAFB" transform="translate(472,528)"/>
<path d="M0 0 C2.29603592 0.89582681 4.04973631 2.00844349 6.04882812 3.45019531 C6.78939453 3.97935547 7.52996094 4.50851562 8.29296875 5.05371094 C9.43862305 5.88612305 9.43862305 5.88612305 10.60742188 6.73535156 C12.12942989 7.82797697 13.65156042 8.92043174 15.17382812 10.01269531 C16.18038452 10.74153931 16.18038452 10.74153931 17.20727539 11.48510742 C18.79757859 12.62115901 20.41876318 13.71374577 22.04492188 14.79785156 C22.04492188 15.45785156 22.04492188 16.11785156 22.04492188 16.79785156 C20.38012695 18.27832031 20.38012695 18.27832031 18.06445312 19.98535156 C17.22978516 20.60152344 16.39511719 21.21769531 15.53515625 21.85253906 C14.65150391 22.49449219 13.76785156 23.13644531 12.85742188 23.79785156 C11.99310547 24.43980469 11.12878906 25.08175781 10.23828125 25.74316406 C2.34408136 31.52619478 2.34408136 31.52619478 -1.95507812 32.79785156 C-4.75195312 31.27050781 -4.75195312 31.27050781 -7.70507812 28.86035156 C-8.22295898 28.44519287 -8.74083984 28.03003418 -9.27441406 27.60229492 C-10.84265752 26.34408113 -12.39896398 25.07103586 -13.95507812 23.79785156 C-15.70271894 22.48221185 -17.45241946 21.16929917 -19.20507812 19.86035156 C-21.40820312 18.20800781 -21.40820312 18.20800781 -22.95507812 16.79785156 C-22.95507812 16.13785156 -22.95507812 15.47785156 -22.95507812 14.79785156 C-20.79993373 13.10900748 -18.64485278 11.53478874 -16.39257812 9.98535156 C-15.78349609 9.55931641 -15.17441406 9.13328125 -14.546875 8.69433594 C-13.31174747 7.83040017 -12.07259651 6.97218944 -10.82958984 6.11962891 C-9.55298715 5.21945608 -8.2996281 4.28560626 -7.06884766 3.32373047 C-2.43971593 -0.25225834 -2.43971593 -0.25225834 0 0 Z " fill="#F8FBFB" transform="translate(469.955078125,477.2021484375)"/>
<path d="M0 0 C3.68237509 4.69286193 6.34630561 9.89773777 9.1875 15.125 C9.74630859 16.13949219 10.30511719 17.15398437 10.88085938 18.19921875 C11.40873047 19.16730469 11.93660156 20.13539063 12.48046875 21.1328125 C12.96410889 22.01855957 13.44774902 22.90430664 13.94604492 23.81689453 C15 26 15 26 15 28 C5.43 28 -4.14 28 -14 28 C-12.5676166 23.7028498 -11.31544803 20.46410814 -9.1796875 16.6015625 C-8.64472656 15.62832031 -8.10976563 14.65507812 -7.55859375 13.65234375 C-7.00300781 12.65332031 -6.44742188 11.65429688 -5.875 10.625 C-5.31167969 9.60277344 -4.74835937 8.58054687 -4.16796875 7.52734375 C-2.7830669 5.01574208 -1.39363545 2.50676281 0 0 Z " fill="#F7F9F9" transform="translate(774,477)"/>
<path d="M0 0 C2.89441782 2.11214273 3.84365414 3.54073402 5 6.9375 C5 10 5 10 3.1875 12.8125 C0.40715393 15.59284607 -0.42882692 15.93653632 -4.375 16.375 C-8 16 -8 16 -10.4375 13.9375 C-12.38925759 10.26819573 -12.59677999 8.10286241 -12 4 C-8.27771943 -0.71488872 -5.77958862 -1.50269304 0 0 Z " fill="#F3F5F6" transform="translate(357,482)"/>
<path d="M0 0 C4.17823086 1.34300278 5.99060519 2.51774496 8.5 6.125 C8.65129568 10.43692698 8.20478473 12.33966844 5.3125 15.5625 C1.93724821 17.43763988 0.2992366 17.83735686 -3.5 17.125 C-7.13525215 14.51710172 -8.33397068 13.0547642 -9.125 8.625 C-8.5 5.125 -8.5 5.125 -6.4375 2.125 C-3.5 0.125 -3.5 0.125 0 0 Z " fill="#F2F9F9" transform="translate(590.5,481.875)"/>
<path d="M0 0 C2.5 2.125 2.5 2.125 4 5 C4.07481382 9.26438773 3.64839572 11.23718151 0.875 14.5 C-2.94963184 16.49546009 -4.89631321 16.19379979 -9 15 C-11.4375 13.3125 -11.4375 13.3125 -13 11 C-13.66974422 7.06525272 -13.35110528 5.52665792 -11.125 2.1875 C-7.39843934 -1.64866539 -5.12463952 -1.23698195 0 0 Z " fill="#F3F5F6" transform="translate(475,393)"/>
<path d="M0 0 C3.55293571 0.86365829 5.00610232 2.49299686 6.9765625 5.48046875 C7.12785818 9.79239573 6.68134723 11.69513719 3.7890625 14.91796875 C0.45441113 16.77055284 -1.2678698 17.11971432 -5.0234375 16.48046875 C-8.24327374 14.30490372 -8.93401641 12.78785373 -10.0234375 9.04296875 C-10.0234375 5.48046875 -10.0234375 5.48046875 -8.5859375 2.54296875 C-5.68849658 0.21088215 -3.71860175 -0.25765593 0 0 Z " fill="#F5F7F7" transform="translate(472.0234375,571.51953125)"/>
<path d="M0 0 C0.99 0.33 1.98 0.66 3 1 C2.38125 1.0825 1.7625 1.165 1.125 1.25 C-1.13953908 1.77260299 -1.13953908 1.77260299 -1.875 3.75 C-3.54100513 7.08201026 -6.07916393 8.71412829 -9 11 C-7.67667408 6.00076875 -4.39231845 2.60213075 0 0 Z " fill="#21ACA8" transform="translate(581,473)"/>
</svg>
